<svg xmlns="http://www.w3.org/2000/svg" xmlns:xlink="http://www.w3.org/1999/xlink" version="1.1" class="marks" width="753" height="265" viewBox="0 0 753 265"><rect width="753" height="265" fill="white"/><g fill="none" stroke-miterlimit="10" transform="translate(33,28)"><g class="mark-group role-frame root" role="graphics-object" aria-roledescription="group mark container"><g transform="translate(0,0)"><path class="background" aria-hidden="true" d="M0.5,0.5h650v200h-650Z" stroke="#ddd"/><g><g class="mark-group role-axis" aria-hidden="true"><g transform="translate(0.5,0.5)"><path class="background" aria-hidden="true" d="M0,0h0v0h0Z" pointer-events="none"/><g><g class="mark-rule role-axis-grid" pointer-events="none"><line transform="translate(0,200)" x2="650" y2="0" stroke="#ddd" stroke-width="1" opacity="1"/><line transform="translate(0,160)" x2="650" y2="0" stroke="#ddd" stroke-width="1" opacity="1"/><line transform="translate(0,120)" x2="650" y2="0" stroke="#ddd" stroke-width="1" opacity="1"/><line transform="translate(0,80)" x2="650" y2="0" stroke="#ddd" stroke-width="1" opacity="1"/><line transform="translate(0,40)" x2="650" y2="0" stroke="#ddd" stroke-width="1" opacity="1"/><line transform="translate(0,0)" x2="650" y2="0" stroke="#ddd" stroke-width="1" opacity="1"/></g></g><path class="foreground" aria-hidden="true" d="" pointer-events="none" display="none"/></g></g><g class="mark-group role-axis" role="graphics-symbol" aria-roledescription="axis" aria-label="X-axis titled 'Position' for a discrete scale with 20 values: QB, HB, WR, TE, LT, ending with P"><g transform="translate(0.5,200.5)"><path class="background" aria-hidden="true" d="M0,0h0v0h0Z" pointer-events="none"/><g><g class="mark-rule role-axis-tick" pointer-events="none"><line transform="translate(16,0)" x2="0" y2="5" stroke="#888" stroke-width="1" opacity="1"/><line transform="translate(48,0)" x2="0" y2="5" stroke="#888" stroke-width="1" opacity="1"/><line transform="translate(81,0)" x2="0" y2="5" stroke="#888" stroke-width="1" opacity="1"/><line transform="translate(113,0)" x2="0" y2="5" stroke="#888" stroke-width="1" opacity="1"/><line transform="translate(146,0)" x2="0" y2="5" stroke="#888" stroke-width="1" opacity="1"/><line transform="translate(178,0)" x2="0" y2="5" stroke="#888" stroke-width="1" opacity="1"/><line transform="translate(211,0)" x2="0" y2="5" stroke="#888" stroke-width="1" opacity="1"/><line transform="translate(243,0)" x2="0" y2="5" stroke="#888" stroke-width="1" opacity="1"/><line transform="translate(276,0)" x2="0" y2="5" stroke="#888" stroke-width="1" opacity="1"/><line transform="translate(308,0)" x2="0" y2="5" stroke="#888" stroke-width="1" opacity="1"/><line transform="translate(341,0)" x2="0" y2="5" stroke="#888" stroke-width="1" opacity="1"/><line transform="translate(373,0)" x2="0" y2="5" stroke="#888" stroke-width="1" opacity="1"/><line transform="translate(406,0)" x2="0" y2="5" stroke="#888" stroke-width="1" opacity="1"/><line transform="translate(438,0)" x2="0" y2="5" stroke="#888" stroke-width="1" opacity="1"/><line transform="translate(471,0)" x2="0" y2="5" stroke="#888" stroke-width="1" opacity="1"/><line transform="translate(503,0)" x2="0" y2="5" stroke="#888" stroke-width="1" opacity="1"/><line transform="translate(536,0)" x2="0" y2="5" stroke="#888" stroke-width="1" opacity="1"/><line transform="translate(568,0)" x2="0" y2="5" stroke="#888" stroke-width="1" opacity="1"/><line transform="translate(601,0)" x2="0" y2="5" stroke="#888" stroke-width="1" opacity="1"/><line transform="translate(633,0)" x2="0" y2="5" stroke="#888" stroke-width="1" opacity="1"/></g><g class="mark-text role-axis-label" pointer-events="none"><text text-anchor="middle" transform="translate(15.75,15)" font-family="sans-serif" font-size="10px" fill="#000" opacity="1">QB</text><text text-anchor="middle" transform="translate(48.25,15)" font-family="sans-serif" font-size="10px" fill="#000" opacity="1">HB</text><text text-anchor="middle" transform="translate(80.75,15)" font-family="sans-serif" font-size="10px" fill="#000" opacity="1">WR</text><text text-anchor="middle" transform="translate(113.25,15)" font-family="sans-serif" font-size="10px" fill="#000" opacity="1">TE</text><text text-anchor="middle" transform="translate(145.75,15)" font-family="sans-serif" font-size="10px" fill="#000" opacity="1">LT</text><text text-anchor="middle" transform="translate(178.25,15)" font-family="sans-serif" font-size="10px" fill="#000" opacity="1">LG</text><text text-anchor="middle" transform="translate(210.75,15)" font-family="sans-serif" font-size="10px" fill="#000" opacity="1">C</text><text text-anchor="middle" transform="translate(243.25,15)" font-family="sans-serif" font-size="10px" fill="#000" opacity="1">RG</text><text text-anchor="middle" transform="translate(275.75,15)" font-family="sans-serif" font-size="10px" fill="#000" opacity="1">RT</text><text text-anchor="middle" transform="translate(308.25,15)" font-family="sans-serif" font-size="10px" fill="#000" opacity="1">LE</text><text text-anchor="middle" transform="translate(340.75,15)" font-family="sans-serif" font-size="10px" fill="#000" opacity="1">RE</text><text text-anchor="middle" transform="translate(373.25,15)" font-family="sans-serif" font-size="10px" fill="#000" opacity="1">DT</text><text text-anchor="middle" transform="translate(405.75,15)" font-family="sans-serif" font-size="10px" fill="#000" opacity="1">LOLB</text><text text-anchor="middle" transform="translate(438.25,15)" font-family="sans-serif" font-size="10px" fill="#000" opacity="1">MLB</text><text text-anchor="middle" transform="translate(470.75,15)" font-family="sans-serif" font-size="10px" fill="#000" opacity="1">ROLB</text><text text-anchor="middle" transform="translate(503.25,15)" font-family="sans-serif" font-size="10px" fill="#000" opacity="1">CB</text><text text-anchor="middle" transform="translate(535.75,15)" font-family="sans-serif" font-size="10px" fill="#000" opacity="1">FS</text><text text-anchor="middle" transform="translate(568.25,15)" font-family="sans-serif" font-size="10px" fill="#000" opacity="1">SS</text><text text-anchor="middle" transform="translate(600.75,15)" font-family="sans-serif" font-size="10px" fill="#000" opacity="1">K</text><text text-anchor="middle" transform="translate(633.25,15)" font-family="sans-serif" font-size="10px" fill="#000" opacity="1">P</text></g><g class="mark-rule role-axis-domain" pointer-events="none"><line transform="translate(0,0)" x2="650" y2="0" stroke="#888" stroke-width="1" opacity="1"/></g><g class="mark-text role-axis-title" pointer-events="none"><text text-anchor="middle" transform="translate(325,30)" font-family="sans-serif" font-size="11px" font-weight="bold" fill="#000" opacity="1">Position</text></g></g><path class="foreground" aria-hidden="true" d="" pointer-events="none" display="none"/></g></g><g class="mark-group role-axis" role="graphics-symbol" aria-roledescription="axis" aria-label="Y-axis titled 'Players' for a linear scale with values from 0 to 5"><g transform="translate(0.5,0.5)"><path class="background" aria-hidden="true" d="M0,0h0v0h0Z" pointer-events="none"/><g><g class="mark-rule role-axis-tick" pointer-events="none"><line transform="translate(0,200)" x2="-5" y2="0" stroke="#888" stroke-width="1" opacity="1"/><line transform="translate(0,160)" x2="-5" y2="0" stroke="#888" stroke-width="1" opacity="1"/><line transform="translate(0,120)" x2="-5" y2="0" stroke="#888" stroke-width="1" opacity="1"/><line transform="translate(0,80)" x2="-5" y2="0" stroke="#888" stroke-width="1" opacity="1"/><line transform="translate(0,40)" x2="-5" y2="0" stroke="#888" stroke-width="1" opacity="1"/><line transform="translate(0,0)" x2="-5" y2="0" stroke="#888" stroke-width="1" opacity="1"/></g><g class="mark-text role-axis-label" pointer-events="none"><text text-anchor="end" transform="translate(-7,203)" font-family="sans-serif" font-size="10px" fill="#000" opacity="1">0</text><text text-anchor="end" transform="translate(-7,163)" font-family="sans-serif" font-size="10px" fill="#000" opacity="1">1</text><text text-anchor="end" transform="translate(-7,123)" font-family="sans-serif" font-size="10px" fill="#000" opacity="1">2</text><text text-anchor="end" transform="translate(-7,83)" font-family="sans-serif" font-size="10px" fill="#000" opacity="1">3</text><text text-anchor="end" transform="translate(-7,42.99999999999999)" font-family="sans-serif" font-size="10px" fill="#000" opacity="1">4</text><text text-anchor="end" transform="translate(-7,3)" font-family="sans-serif" font-size="10px" fill="#000" opacity="1">5</text></g><g class="mark-rule role-axis-domain" pointer-events="none"><line transform="translate(0,200)" x2="0" y2="-200" stroke="#888" stroke-width="1" opacity="1"/></g><g class="mark-text role-axis-title" pointer-events="none"><text text-anchor="middle" transform="translate(-16.5615234375,100) rotate(-90) translate(0,-2)" font-family="sans-serif" font-size="11px" font-weight="bold" fill="#000" opacity="1">Players</text></g></g><path class="foreground" aria-hidden="true" d="" pointer-events="none" display="none"/></g></g><g class="mark-rect role-mark marks" role="graphics-object" aria-roledescription="rect mark container"><path aria-label="Position: QB; Players: 2; Dev Trait: star; dev_trait_order: 2" role="graphics-symbol" aria-roledescription="bar" d="M1.625,120h29.25v80h-29.25Z" fill="#3b82f6"/><path aria-label="Position: QB; Players: 1; Dev Trait: elite; dev_trait_order: 3" role="graphics-symbol" aria-roledescription="bar" d="M1.625,80h29.25v40h-29.25Z" fill="#1e40af"/><path aria-label="Position: HB; Players: 2; Dev Trait: star; dev_trait_order: 2" role="graphics-symbol" aria-roledescription="bar" d="M34.125,120h29.25v80h-29.25Z" fill="#3b82f6"/><path aria-label="Position: HB; Players: 3; Dev Trait: elite; dev_trait_order: 3" role="graphics-symbol" aria-roledescription="bar" d="M34.125,0h29.25v120h-29.25Z" fill="#1e40af"/><path aria-label="Position: WR; Players: 4; Dev Trait: star; dev_trait_order: 2" role="graphics-symbol" aria-roledescription="bar" d="M66.625,39.99999999999999h29.25v160h-29.25Z" fill="#3b82f6"/><path aria-label="Position: WR; Players: 1; Dev Trait: elite; dev_trait_order: 3" role="graphics-symbol" aria-roledescription="bar" d="M66.625,0h29.25v39.99999999999999h-29.25Z" fill="#1e40af"/><path aria-label="Position: TE; Players: 1; Dev Trait: star; dev_trait_order: 2" role="graphics-symbol" aria-roledescription="bar" d="M99.125,160h29.25v40h-29.25Z" fill="#3b82f6"/><path aria-label="Position: TE; Players: 1; Dev Trait: elite; dev_trait_order: 3" role="graphics-symbol" aria-roledescription="bar" d="M99.125,120h29.25v40h-29.25Z" fill="#1e40af"/><path aria-label="Position: LT; Players: 1; Dev Trait: star; dev_trait_order: 2" role="graphics-symbol" aria-roledescription="bar" d="M131.625,160h29.25v40h-29.25Z" fill="#3b82f6"/><path aria-label="Position: LT; Players: 1; Dev Trait: elite; dev_trait_order: 3" role="graphics-symbol" aria-roledescription="bar" d="M131.625,120h29.25v40h-29.25Z" fill="#1e40af"/><path aria-label="Position: LG; Players: 1; Dev Trait: star; dev_trait_order: 2" role="graphics-symbol" aria-roledescription="bar" d="M164.125,160h29.25v40h-29.25Z" fill="#3b82f6"/><path aria-label="Position: LG; Players: 1; Dev Trait: elite; dev_trait_order: 3" role="graphics-symbol" aria-roledescription="bar" d="M164.125,120h29.25v40h-29.25Z" fill="#1e40af"/><path aria-label="Position: C; Players: 0; Dev Trait: star; dev_trait_order: 2" role="graphics-symbol" aria-roledescription="bar" d="M196.625,200h29.25v0h-29.25Z" fill="#3b82f6"/><path aria-label="Position: C; Players: 0; Dev Trait: elite; dev_trait_order: 3" role="graphics-symbol" aria-roledescription="bar" d="M196.625,200h29.25v0h-29.25Z" fill="#1e40af"/><path aria-label="Position: RG; Players: 1; Dev Trait: star; dev_trait_order: 2" role="graphics-symbol" aria-roledescription="bar" d="M229.125,160h29.25v40h-29.25Z" fill="#3b82f6"/><path aria-label="Position: RG; Players: 0; Dev Trait: elite; dev_trait_order: 3" role="graphics-symbol" aria-roledescription="bar" d="M229.125,160h29.25v0h-29.25Z" fill="#1e40af"/><path aria-label="Position: RT; Players: 1; Dev Trait: star; dev_trait_order: 2" role="graphics-symbol" aria-roledescription="bar" d="M261.625,160h29.25v40h-29.25Z" fill="#3b82f6"/><path aria-label="Position: RT; Players: 1; Dev Trait: elite; dev_trait_order: 3" role="graphics-symbol" aria-roledescription="bar" d="M261.625,120h29.25v40h-29.25Z" fill="#1e40af"/><path aria-label="Position: LE; Players: 3; Dev Trait: star; dev_trait_order: 2" role="graphics-symbol" aria-roledescription="bar" d="M294.125,80h29.25v120h-29.25Z" fill="#3b82f6"/><path aria-label="Position: LE; Players: 0; Dev Trait: elite; dev_trait_order: 3" role="graphics-symbol" aria-roledescription="bar" d="M294.125,80h29.25v0h-29.25Z" fill="#1e40af"/><path aria-label="Position: RE; Players: 1; Dev Trait: star; dev_trait_order: 2" role="graphics-symbol" aria-roledescription="bar" d="M326.625,160h29.25v40h-29.25Z" fill="#3b82f6"/><path aria-label="Position: RE; Players: 1; Dev Trait: elite; dev_trait_order: 3" role="graphics-symbol" aria-roledescription="bar" d="M326.625,120h29.25v40h-29.25Z" fill="#1e40af"/><path aria-label="Position: DT; Players: 0; Dev Trait: star; dev_trait_order: 2" role="graphics-symbol" aria-roledescription="bar" d="M359.125,200h29.25v0h-29.25Z" fill="#3b82f6"/><path aria-label="Position: DT; Players: 2; Dev Trait: elite; dev_trait_order: 3" role="graphics-symbol" aria-roledescription="bar" d="M359.125,120h29.25v80h-29.25Z" fill="#1e40af"/><path aria-label="Position: LOLB; Players: 2; Dev Trait: star; dev_trait_order: 2" role="graphics-symbol" aria-roledescription="bar" d="M391.625,120h29.25v80h-29.25Z" fill="#3b82f6"/><path aria-label="Position: LOLB; Players: 1; Dev Trait: elite; dev_trait_order: 3" role="graphics-symbol" aria-roledescription="bar" d="M391.625,80h29.25v40h-29.25Z" fill="#1e40af"/><path aria-label="Position: MLB; Players: 0; Dev Trait: star; dev_trait_order: 2" role="graphics-symbol" aria-roledescription="bar" d="M424.125,200h29.25v0h-29.25Z" fill="#3b82f6"/><path aria-label="Position: MLB; Players: 1; Dev Trait: elite; dev_trait_order: 3" role="graphics-symbol" aria-roledescription="bar" d="M424.125,160h29.25v40h-29.25Z" fill="#1e40af"/><path aria-label="Position: ROLB; Players: 0; Dev Trait: star; dev_trait_order: 2" role="graphics-symbol" aria-roledescription="bar" d="M456.625,200h29.25v0h-29.25Z" fill="#3b82f6"/><path aria-label="Position: ROLB; Players: 1; Dev Trait: elite; dev_trait_order: 3" role="graphics-symbol" aria-roledescription="bar" d="M456.625,160h29.25v40h-29.25Z" fill="#1e40af"/><path aria-label="Position: CB; Players: 1; Dev Trait: star; dev_trait_order: 2" role="graphics-symbol" aria-roledescription="bar" d="M489.125,160h29.25v40h-29.25Z" fill="#3b82f6"/><path aria-label="Position: CB; Players: 4; Dev Trait: elite; dev_trait_order: 3" role="graphics-symbol" aria-roledescription="bar" d="M489.125,0h29.25v160h-29.25Z" fill="#1e40af"/><path aria-label="Position: FS; Players: 0; Dev Trait: star; dev_trait_order: 2" role="graphics-symbol" aria-roledescription="bar" d="M521.625,200h29.25v0h-29.25Z" fill="#3b82f6"/><path aria-label="Position: FS; Players: 0; Dev Trait: elite; dev_trait_order: 3" role="graphics-symbol" aria-roledescription="bar" d="M521.625,200h29.25v0h-29.25Z" fill="#1e40af"/><path aria-label="Position: SS; Players: 2; Dev Trait: star; dev_trait_order: 2" role="graphics-symbol" aria-roledescription="bar" d="M554.125,120h29.25v80h-29.25Z" fill="#3b82f6"/><path aria-label="Position: SS; Players: 0; Dev Trait: elite; dev_trait_order: 3" role="graphics-symbol" aria-roledescription="bar" d="M554.125,120h29.25v0h-29.25Z" fill="#1e40af"/><path aria-label="Position: K; Players: 0; Dev Trait: star; dev_trait_order: 2" role="graphics-symbol" aria-roledescription="bar" d="M586.625,200h29.25v0h-29.25Z" fill="#3b82f6"/><path aria-label="Position: K; Players: 0; Dev Trait: elite; dev_trait_order: 3" role="graphics-symbol" aria-roledescription="bar" d="M586.625,200h29.25v0h-29.25Z" fill="#1e40af"/><path aria-label="Position: P; Players: 0; Dev Trait: star; dev_trait_order: 2" role="graphics-symbol" aria-roledescription="bar" d="M619.125,200h29.25v0h-29.25Z" fill="#3b82f6"/><path aria-label="Position: P; Players: 0; Dev Trait: elite; dev_trait_order: 3" role="graphics-symbol" aria-roledescription="bar" d="M619.125,200h29.25v0h-29.25Z" fill="#1e40af"/></g><g class="mark-group role-legend" role="graphics-symbol" aria-roledescription="legend" aria-label="Symbol legend titled 'Dev Trait' for fill color with 2 values: elite, star"><g transform="translate(668,0)"><path class="background" aria-hidden="true" d="M0,0h47v40h-47Z" pointer-events="none"/><g><g class="mark-group role-legend-entry"><g transform="translate(0,16)"><path class="background" aria-hidden="true" d="M0,0h0v0h0Z" pointer-events="none"/><g><g class="mark-group role-scope" role="graphics-object" aria-roledescription="group mark container"><g transform="translate(0,0)"><path class="background" aria-hidden="true" d="M0,0h34.3447265625v11h-34.3447265625Z" pointer-events="none" opacity="1"/><g><g class="mark-symbol role-legend-symbol" pointer-events="none"><path transform="translate(6,6)" d="M-5,-5h10v10h-10Z" fill="#1e40af" stroke-width="1.5" opacity="1"/></g><g class="mark-text role-legend-label" pointer-events="none"><text text-anchor="start" transform="translate(16,9)" font-family="sans-serif" font-size="10px" fill="#000" opacity="1">elite</text></g></g><path class="foreground" aria-hidden="true" d="" pointer-events="none" display="none"/></g><g transform="translate(0,13)"><path class="background" aria-hidden="true" d="M0,0h34.3447265625v11h-34.3447265625Z" pointer-events="none" opacity="1"/><g><g class="mark-symbol role-legend-symbol" pointer-events="none"><path transform="translate(6,6)" d="M-5,-5h10v10h-10Z" fill="#3b82f6" stroke-width="1.5" opacity="1"/></g><g class="mark-text role-legend-label" pointer-events="none"><text text-anchor="start" transform="translate(16,9)" font-family="sans-serif" font-size="10px" fill="#000" opacity="1">star</text></g></g><path class="foreground" aria-hidden="true" d="" pointer-events="none" display="none"/></g></g></g><path class="foreground" aria-hidden="true" d="" pointer-events="none" display="none"/></g></g><g class="mark-text role-legend-title" pointer-events="none"><text text-anchor="start" transform="translate(0,9)" font-family="sans-serif" font-size="11px" font-weight="bold" fill="#000" opacity="1">Dev Trait</text></g></g><path class="foreground" aria-hidden="true" d="" pointer-events="none" display="none"/></g></g><g class="mark-group role-title"><g transform="translate(325,-23)"><path class="background" aria-hidden="true" d="M0,0h0v0h0Z" pointer-events="none"/><g><g class="mark-text role-title-text" role="graphics-symbol" aria-roledescription="title" aria-label="Title text '2030 Star / Elite Players per Position'" pointer-events="none"><text text-anchor="middle" transform="translate(0,11)" font-family="sans-serif" font-size="14px" font-weight="bold" fill="#000" opacity="1">2030 Star / Elite Players per Position</text></g></g><path class="foreground" aria-hidden="true" d="" pointer-events="none" display="none"/></g></g></g><path class="foreground" aria-hidden="true" d="" display="none"/></g></g></g></svg>